<?xml version="1.0" encoding="utf-8"?>
<!-- Generator: Adobe Illustrator 23.1.0, SVG Export Plug-In . SVG Version: 6.00 Build 0)  -->
<svg version="1.1" id="Layer_1" xmlns="http://www.w3.org/2000/svg" xmlns:xlink="http://www.w3.org/1999/xlink" x="0px" y="0px"
	 viewBox="0 0 1047.3 1080" style="enable-background:new 0 0 1047.3 1080;" xml:space="preserve">
<style type="text/css">
	.st0{fill:#F66B62;}
</style>
<g>
	<path class="st0" d="M203.9,680.3c-49.2,9.5-92.4,19.5-129.7,30.2l88.8-269.1c36.7-10.7,74-19.8,111.9-27.5
		c15.4-52.1,24.9-86.7,28.4-103.9c-98.3,17.2-173.5,33.5-225.6,48.9l89.7-268.2c104.8-34.9,284.2-61,538.2-78.2
		C805.2,5.3,894.9,1.2,974.8,0l-89.7,268.2c-16-6.5-47.1-9.8-93.3-9.8c-72.2,0-159.6,6.8-262,20.4c-5.9,35.5-13,69.9-21.3,103
		c77.6-8.3,153.1-14.8,226.5-19.5c108.9-6.5,187.7-9.8,236.2-9.8l-89.7,268.2c-17.8-7.7-50-11.5-96.8-11.5
		c-86.5,0-199.5,9.8-339.3,29.3c-48,184.2-82.9,297.2-104.8,339.3L72.5,1080C90.2,1058.1,134,924.9,203.9,680.3z"/>
</g>
</svg>
